<svg width="1920" height="481" viewBox="0 0 1920 481" fill="none" xmlns="http://www.w3.org/2000/svg">
<g clip-path="url(#clip0_1996_286)">
<rect width="1920" height="75" fill="#F5F5F7"/>
<g filter="url(#filter0_f_1996_286)">
<rect x="1152" y="-30" width="768" height="50" rx="25" fill="#FD8C1F"/>
</g>
<g opacity="0.5" filter="url(#filter1_f_1996_286)">
<rect x="96" y="-135" width="1728" height="150" rx="75" fill="#E44CBB"/>
</g>
<g filter="url(#filter2_f_1996_286)">
<rect x="312" y="-135" width="1296" height="150" rx="75" fill="#F55BE4"/>
</g>
<g opacity="0.5" filter="url(#filter3_f_1996_286)">
<path d="M0 -12.5C0 -33.2107 16.7893 -50 37.5 -50H1114.5C1135.21 -50 1152 -33.2107 1152 -12.5C1152 8.21068 1135.16 25 1114.45 25C700.117 25 451.883 25 37.5495 25C16.8388 25 0 8.21068 0 -12.5Z" fill="#019FFB"/>
</g>
</g>
<defs>
<filter id="filter0_f_1996_286" x="1132" y="-50" width="808" height="90" filterUnits="userSpaceOnUse" color-interpolation-filters="sRGB">
<feFlood flood-opacity="0" result="BackgroundImageFix"/>
<feBlend mode="normal" in="SourceGraphic" in2="BackgroundImageFix" result="shape"/>
<feGaussianBlur stdDeviation="10" result="effect1_foregroundBlur_1996_286"/>
</filter>
<filter id="filter1_f_1996_286" x="76" y="-155" width="1768" height="190" filterUnits="userSpaceOnUse" color-interpolation-filters="sRGB">
<feFlood flood-opacity="0" result="BackgroundImageFix"/>
<feBlend mode="normal" in="SourceGraphic" in2="BackgroundImageFix" result="shape"/>
<feGaussianBlur stdDeviation="10" result="effect1_foregroundBlur_1996_286"/>
</filter>
<filter id="filter2_f_1996_286" x="292" y="-155" width="1336" height="190" filterUnits="userSpaceOnUse" color-interpolation-filters="sRGB">
<feFlood flood-opacity="0" result="BackgroundImageFix"/>
<feBlend mode="normal" in="SourceGraphic" in2="BackgroundImageFix" result="shape"/>
<feGaussianBlur stdDeviation="10" result="effect1_foregroundBlur_1996_286"/>
</filter>
<filter id="filter3_f_1996_286" x="-20" y="-70" width="1192" height="115" filterUnits="userSpaceOnUse" color-interpolation-filters="sRGB">
<feFlood flood-opacity="0" result="BackgroundImageFix"/>
<feBlend mode="normal" in="SourceGraphic" in2="BackgroundImageFix" result="shape"/>
<feGaussianBlur stdDeviation="10" result="effect1_foregroundBlur_1996_286"/>
</filter>
<clipPath id="clip0_1996_286">
<rect width="1920" height="75" fill="white"/>
</clipPath>
</defs>
</svg>
